<?xml version="1.0" encoding="UTF-8"?>
<svg width="128px" height="128px" viewBox="0 0 128 128" version="1.1" xmlns="http://www.w3.org/2000/svg">
  <g fill="none" fill-rule="evenodd">
    <rect fill="#4F46E5" x="0" y="0" width="128" height="128" rx="24"></rect>
    <g transform="translate(24.000000, 24.000000)">
      <!-- 日历边框 -->
      <rect stroke="#FFFFFF" stroke-width="4" x="2" y="10" width="76" height="70" rx="4"></rect>
      
      <!-- 日历顶部 -->
      <rect fill="#FFFFFF" x="2" y="10" width="76" height="16" rx="2"></rect>
      
      <!-- 日历挂钩 -->
      <rect fill="#FFFFFF" x="20" y="2" width="4" height="8" rx="2"></rect>
      <rect fill="#FFFFFF" x="56" y="2" width="4" height="8" rx="2"></rect>
      
      <!-- 日历格子线 -->
      <line x1="2" y1="42" x2="78" y2="42" stroke="#FFFFFF" stroke-width="2"></line>
      <line x1="2" y1="58" x2="78" y2="58" stroke="#FFFFFF" stroke-width="2"></line>
      <line x1="26" y1="26" x2="26" y2="80" stroke="#FFFFFF" stroke-width="2"></line>
      <line x1="50" y1="26" x2="50" y2="80" stroke="#FFFFFF" stroke-width="2"></line>
      
      <!-- 待办事项勾选标记 -->
      <circle fill="#FFFFFF" cx="14" cy="50" r="6"></circle>
      <circle fill="#FFFFFF" cx="38" cy="66" r="6"></circle>
      <path d="M11,50 L14,53 L17,46" stroke="#4F46E5" stroke-width="2" stroke-linecap="round" stroke-linejoin="round"></path>
      <path d="M35,66 L38,69 L41,62" stroke="#4F46E5" stroke-width="2" stroke-linecap="round" stroke-linejoin="round"></path>
      
      <!-- 数字日期标记 -->
      <text font-family="Arial-BoldMT, Arial" font-size="12" font-weight="bold" fill="#4F46E5">
        <tspan x="9" y="36">14</tspan>
      </text>
      <text font-family="Arial-BoldMT, Arial" font-size="12" font-weight="bold" fill="#4F46E5">
        <tspan x="33" y="36">15</tspan>
      </text>
      <text font-family="Arial-BoldMT, Arial" font-size="12" font-weight="bold" fill="#FFFFFF">
        <tspan x="57" y="36">16</tspan>
      </text>
    </g>
  </g>
</svg> 